<svg width="800" height="800" viewBox="0 0 800 800" fill="none" xmlns="http://www.w3.org/2000/svg">
<style>
    path {
      fill: #000000;
    }
    @media (prefers-color-scheme: dark) {
      path {
        fill: white;
      }
    }
  </style>
<path d="M702.218 721.112C685.899 674.755 632.222 639.083 584.614 616.84C571.254 604.394 554.506 595.417 536.715 588.411C526.257 584.296 520.972 572.5 525.059 562.029C532.094 544.059 542.238 527.845 555.831 513.154C571.586 496.131 583.102 470.924 589.113 455.931C591.927 448.926 598.02 443.612 605.466 442.426C634.744 437.752 655.603 417.23 662.585 386.884C671.247 349.247 661.41 308.465 625.366 292.809C619.686 290.35 616.041 284.722 616.617 278.548L616.762 277.013C617.285 271.269 615.384 265.851 612.047 261.462C616.942 254.259 614.274 241.097 613.896 232.825C613.477 223.605 612.791 214.384 611.745 205.216C609.96 189.461 607.187 173.794 603.083 158.463C595.827 131.348 584.327 105.165 567.114 82.8694C532.134 37.5931 477.817 16.6754 422.019 12.7463C411.938 -4.31078 385.684 -4.23487 375.697 12.8917C292.225 20.0772 223.803 69.1083 197.878 150.267C192.576 166.848 189.012 183.957 186.733 201.2C185.535 210.316 184.686 219.484 184.152 228.663C183.617 237.79 180.204 254.33 186.262 262.12C183.256 266.393 181.576 271.561 182.07 277.002L182.227 278.653C182.785 284.798 179.181 290.397 173.542 292.885C137.858 308.628 128.109 349.585 137.055 386.722C144.154 416.22 165.053 436.545 193.64 441.87C200.686 443.184 206.4 448.236 209.266 454.817C217.603 473.932 234.841 502.988 246.403 516.232C258.333 529.882 267.943 544.829 274.349 561.392C278.372 571.799 272.953 583.554 262.536 587.553C242.834 595.117 224.3 604.988 210.044 619.197C170.651 638.207 128.799 664.135 105.993 702.75C89.9999 729.823 81.8263 768.525 86.1453 800L111.928 796.471C109.975 774.943 114.038 752.393 121.096 732.115C131.863 701.146 158.901 679.311 185.79 662.352C173.651 712.826 196.167 767.055 248.077 782.158C300.841 797.511 350.744 769.735 374.877 723.756C377.458 718.831 382.702 715.849 388.248 716.308C395.23 716.896 402.206 716.948 409.2 716.489C414.63 716.14 419.734 719.093 422.275 723.913C446.691 770.375 497.677 798.046 550.702 781.653C602.268 765.712 623.848 710.524 610.751 660.481C637.836 677.136 666.213 698.908 677.66 729.72C685.264 750.178 690.072 774.49 687.636 796.46L713.419 799.989C713.593 798.652 717.878 765.654 702.216 721.116C685.897 674.759 717.877 765.654 702.216 721.116L702.218 721.112ZM309.298 609.183C309.298 600.73 308.595 592.358 307.269 584.115C305.758 574.819 314.757 567.47 323.454 571.081C339.383 577.685 356.242 582.307 373.759 584.626C378.683 585.278 382.288 589.585 381.73 594.521C378.631 621.53 373.498 649.111 366.207 673.842C364.434 679.847 357.836 683.114 352.115 680.562C337.79 674.167 324.82 664.999 314.012 653.669C310.506 650.012 308.582 645.14 308.739 640.071C309.105 629.043 309.297 609.183 309.297 609.183L309.298 609.183ZM384.416 497.801C386.875 498.818 389.561 499.388 392.375 499.388H404.682C407.496 499.388 410.176 498.812 412.641 497.801V505.69C412.641 523.845 384.422 523.961 384.422 505.69L384.416 497.801ZM490.223 609.183C490.223 609.183 490.537 629.275 491.055 640.513C491.287 645.734 489.281 650.774 485.636 654.524C474.166 666.285 460.318 675.622 445.069 681.871C439.377 684.202 432.983 680.958 431.215 675.057C423.739 650.065 418.507 622.084 415.356 594.667C414.798 589.772 418.432 585.487 423.327 584.923C441.662 582.79 459.307 578.15 475.94 571.273C484.689 567.668 493.741 574.947 492.229 584.295C490.927 592.504 490.235 600.812 490.224 609.184L490.223 609.183ZM398.892 157.596C463.69 157.596 508.542 180.333 537.412 203.343C540.732 205.988 537.854 211.179 533.842 209.813C445.744 179.664 353.419 179.484 265.209 209.383C261.209 210.738 258.36 205.552 261.651 202.913C290.178 180.06 334.507 157.596 398.898 157.596L398.892 157.596ZM160.233 366.743C157.564 333.483 175.609 312.491 209.014 311.787C210.444 312.09 211.514 312.072 212.984 311.915C226.03 313.363 238.129 303.515 238.901 289.597L240.32 264.023C240.919 253.215 247.819 243.785 257.923 239.878C302.809 222.531 350.748 211.839 398.891 211.839C447.422 211.839 495.763 222.699 540.981 240.291C551.05 244.209 557.922 253.627 558.52 264.405L559.927 289.578C560.735 304.152 573.967 314.256 587.692 311.588C622.005 311.977 641.985 331.93 639.328 366.736C637.491 390.764 627.544 413.814 601.301 416.977C603.557 404.553 587.575 396.479 578.995 405.844C572.053 413.407 571.024 430.924 567.368 440.615C559.124 462.387 547.056 482.676 531.631 500.128C502.93 532.632 462.939 554.13 419.889 559.118C415.825 559.589 412.221 556.386 412.064 552.293C412.04 551.683 412.023 551.055 412 550.445C411.872 546.41 414.11 542.736 417.651 540.806C430.15 534.021 438.696 520.882 438.696 505.685V474.17C438.696 470.693 440.44 467.426 443.399 465.577C449.585 461.682 457.085 456.072 459.05 450.13C461.12 443.881 456.696 437.003 449.841 437.003H349.255C342.395 437.003 337.965 443.881 340.046 450.13C341.872 455.624 348.331 460.694 353.888 464.379C356.725 466.257 358.406 469.443 358.406 472.856V505.696C358.406 520.893 366.946 534.031 379.451 540.816C382.992 542.746 385.236 546.415 385.102 550.455C385.091 550.99 385.061 551.536 385.05 552.071C384.904 556.187 381.236 559.402 377.143 558.885C334.948 553.548 297.561 533.636 269.708 503.487C251.814 482.755 237.802 460.345 229.274 434.218C225.891 423.852 225.717 401.442 215.328 395.761C210.13 392.924 203.753 394.058 199.741 398.377C194.66 403.871 196.59 409.94 197.915 416.516C174.975 412.604 162.575 396.25 160.232 366.741C159.215 354.201 162.575 396.25 160.232 366.741L160.233 366.743ZM244.972 753.323C205.929 734.945 197.063 677.519 222.444 644.365C224.322 641.917 226.897 640.068 229.699 638.778C235.74 636.016 241.629 633.493 247.227 631.226C256.604 627.435 267.475 631.214 272.271 640.132C286.05 665.759 307.286 686.531 332.645 699.983C344.836 706.442 347.789 722.866 337.79 732.371C314.913 754.073 273.904 766.927 244.97 753.323L244.972 753.323ZM390.457 683.834C392.41 677.491 394.218 671.021 395.875 664.446C396.578 661.632 400.485 661.632 401.189 664.446C402.857 671.05 404.677 677.544 406.63 683.916C407.659 687.276 405.211 690.636 401.694 690.607C399.613 690.595 397.357 690.566 395.259 690.514C391.811 690.45 389.439 687.131 390.457 683.834L390.457 683.834ZM587.832 699.903C584.861 734.947 557.154 759.218 522.382 760.143C497.093 760.806 475.059 750.452 459.298 732.924C450.276 722.873 453.479 707.228 465.525 701.113C491.697 687.817 513.684 666.784 527.876 640.634C532.771 631.622 543.631 627.687 553.125 631.57C557.188 633.239 561.391 635.035 565.693 636.948C568.286 638.105 570.705 639.762 572.553 641.924C585.384 656.917 589.901 675.515 587.832 699.903C585.21 730.767 590.059 673.754 587.832 699.903L587.832 699.903Z"/>
<path d="M298.315 304.171C264.77 304.026 264.497 356.115 298.082 356.261C331.638 356.406 331.9 304.317 298.315 304.171Z"/>
<path d="M500.675 304.946C467.131 304.8 466.857 356.889 500.443 357.035C533.999 357.181 534.261 305.091 500.675 304.946V304.946Z"/>
<path d="M459.659 282.637H535.671C552.432 282.637 552.454 256.592 535.671 256.592H459.659C442.898 256.592 442.875 282.637 459.659 282.637Z"/>
<path d="M277.151 282.637L352.315 282.962C371.157 283.038 386.435 298.443 386.354 317.303L386.173 363.113C386.15 368.816 381.523 373.427 375.819 373.427H374.372C357.611 373.427 357.589 399.471 374.372 399.471H423.823C440.584 399.471 440.606 373.427 423.823 373.427H422.561C416.829 373.427 412.196 368.764 412.207 363.032L412.388 317.401C412.515 284.195 385.599 257.056 352.42 256.911L277.269 256.585C260.624 256.591 260.246 282.542 277.152 282.636L277.151 282.637Z"/>
</svg>
